<svg width="80" height="80" viewBox="0 0 80 80" fill="none" xmlns="http://www.w3.org/2000/svg">
<path d="M40.0001 79.9101C32.0812 79.9279 24.3352 77.5948 17.7435 73.2064C11.1517 68.818 6.01087 62.5717 2.97222 55.259C-0.0664368 47.9463 -0.866154 39.8962 0.674385 32.1286C2.21492 24.361 6.02639 17.2254 11.6259 11.6259C17.2254 6.02639 24.361 2.21492 32.1286 0.674385C39.8962 -0.866154 47.9463 -0.0664368 55.259 2.97222C62.5717 6.01087 68.818 11.1517 73.2064 17.7435C77.5948 24.3352 79.9279 32.0812 79.9101 40.0001C79.8863 50.5776 75.6739 60.715 68.1945 68.1945C60.715 75.6739 50.5776 79.8863 40.0001 79.9101ZM40.0001 2.55007C32.6007 2.54019 25.3645 4.72483 19.2068 8.82771C13.049 12.9306 8.24628 18.7674 5.40596 25.6C2.56565 32.4326 1.81534 39.954 3.24992 47.213C4.68451 54.472 8.23954 61.1426 13.4654 66.3811C18.6913 71.6195 25.3533 75.1906 32.6088 76.6427C39.8644 78.0947 47.3876 77.3625 54.227 74.5386C61.0664 71.7148 66.9147 66.9261 71.0324 60.7782C75.1501 54.6304 77.3522 47.3995 77.3601 40.0001C77.3601 30.0833 73.4268 20.5713 66.4231 13.5507C59.4193 6.53004 49.9168 2.57391 40.0001 2.55007V2.55007Z" fill="white"/>
<path d="M40.4101 66.0001C39.2601 65.9884 38.1155 65.8407 37.0001 65.5601C35.6778 65.239 34.4454 64.6223 33.3958 63.7562C32.3461 62.8902 31.5065 61.7974 30.9401 60.5601L15.7801 27.0901C15.5181 26.4962 15.3828 25.8542 15.3828 25.2051C15.3828 24.5559 15.5181 23.9139 15.7801 23.3201C16.044 22.7136 16.4309 22.1685 16.9163 21.7192C17.4017 21.27 17.9751 20.9263 18.6001 20.7101C21.7003 19.7183 25.0173 19.6213 28.1701 20.4301C29.3609 20.7808 30.4601 21.3889 31.3898 22.2115C32.3195 23.034 33.057 24.0509 33.5501 25.1901C36.0001 31.0001 40.1101 41.6001 43.1301 49.3301L45.2501 54.7401C45.3891 55.0943 45.6297 55.3996 45.9417 55.6175C46.2536 55.8355 46.6231 55.9563 47.0035 55.9648C47.384 55.9734 47.7585 55.8693 48.0799 55.6656C48.4014 55.4619 48.6554 55.1677 48.8102 54.8201L61.7402 26.2701C61.9016 25.9632 61.9909 25.6236 62.0013 25.277C62.0117 24.9304 61.9429 24.586 61.8001 24.2701C61.5965 23.9147 61.3154 23.6098 60.9779 23.3778C60.6403 23.1459 60.2549 22.9928 59.8501 22.9301C57.8503 22.4984 55.7942 22.3904 53.7601 22.6101C52.6759 22.7047 51.6377 23.0925 50.757 23.732C49.8762 24.3714 49.1859 25.2384 48.7601 26.2401L43.7601 38.9101L41.3701 38.0001L46.3701 25.3301C46.9563 23.8932 47.9273 22.6457 49.1763 21.7248C50.4254 20.8039 51.9042 20.2452 53.4501 20.1101C55.7512 19.8582 58.0779 19.9798 60.3401 20.4701C61.1162 20.6133 61.8503 20.9283 62.4888 21.392C63.1273 21.8557 63.6539 22.4564 64.0301 23.1501C64.3506 23.8037 64.5173 24.5221 64.5173 25.2501C64.5173 25.9781 64.3506 26.6964 64.0301 27.3501L51.1301 55.8701C50.7686 56.6728 50.1786 57.3512 49.4338 57.8205C48.6889 58.2899 47.8223 58.5294 46.9422 58.5091C46.062 58.4889 45.2074 58.2097 44.4849 57.7066C43.7625 57.2034 43.2043 56.4986 42.8801 55.6801C42.2801 54.1401 41.5601 52.2901 40.7601 50.2601C37.7601 42.5401 33.6201 31.9601 31.1601 26.1801C30.8141 25.401 30.306 24.7046 29.6697 24.1374C29.0335 23.5701 28.2836 23.1448 27.4701 22.8901C24.8078 22.2139 22.0097 22.2935 19.3901 23.1201C19.1001 23.2175 18.8336 23.3746 18.608 23.5813C18.3824 23.7879 18.2026 24.0396 18.0801 24.3201C17.9587 24.5905 17.896 24.8836 17.896 25.1801C17.896 25.4765 17.9587 25.7696 18.0801 26.0401L33.2401 59.4701C33.6415 60.3603 34.2398 61.1478 34.9899 61.7732C35.7399 62.3985 36.6222 62.8454 37.5701 63.0801C39.312 63.503 41.1264 63.5303 42.8801 63.1601C44.0139 62.9551 45.0323 62.3391 45.7401 61.4301C45.9231 61.1463 46.2114 60.9468 46.5414 60.8755C46.7049 60.8403 46.8737 60.8375 47.0382 60.8675C47.2026 60.8974 47.3596 60.9594 47.5001 61.0501C47.6407 61.1407 47.762 61.2581 47.8571 61.3956C47.9522 61.533 48.0194 61.6879 48.0547 61.8514C48.0899 62.0148 48.0927 62.1836 48.0628 62.3481C48.0328 62.5126 47.9708 62.6695 47.8801 62.8101C46.8153 64.2964 45.2174 65.3139 43.4201 65.6501C42.4321 65.8731 41.423 65.9904 40.4101 66.0001V66.0001Z" fill="white"/>
</svg>
